<svg width="326" height="326" viewBox="0 0 326 326" fill="none" xmlns="http://www.w3.org/2000/svg">
<path d="M2.61719 240.55V188.85" stroke="#DD0000" stroke-width="4.8" stroke-miterlimit="10"/>
<path d="M17.6172 240.55V188.85" stroke="#DD0000" stroke-width="4.8" stroke-miterlimit="10"/>
<path d="M2.61719 188.85V137.15" stroke="#DD0000" stroke-width="4.8" stroke-miterlimit="10"/>
<path d="M17.6172 188.85V137.15" stroke="#DD0000" stroke-width="4.8" stroke-miterlimit="10"/>
<path d="M2.61719 137.15V85.45" stroke="#DD0000" stroke-width="4.8" stroke-miterlimit="10"/>
<path d="M17.6172 137.15V85.45" stroke="#DD0000" stroke-width="4.8" stroke-miterlimit="10"/>
<path d="M85.1172 2.94995H136.817" stroke="#DD0000" stroke-width="4.8" stroke-miterlimit="10"/>
<path d="M85.1172 17.95H136.817" stroke="#DD0000" stroke-width="4.8" stroke-miterlimit="10"/>
<path d="M136.816 2.94995H188.516" stroke="#DD0000" stroke-width="4.8" stroke-miterlimit="10"/>
<path d="M136.816 17.95H188.516" stroke="#DD0000" stroke-width="4.8" stroke-miterlimit="10"/>
<path d="M188.518 2.94995H240.218" stroke="#DD0000" stroke-width="4.8" stroke-miterlimit="10"/>
<path d="M188.518 17.95H240.218" stroke="#DD0000" stroke-width="4.8" stroke-miterlimit="10"/>
<path d="M322.717 85.45V137.15" stroke="#DD0000" stroke-width="4.8" stroke-miterlimit="10"/>
<path d="M307.717 85.45V137.15" stroke="#DD0000" stroke-width="4.8" stroke-miterlimit="10"/>
<path d="M322.717 137.15V188.85" stroke="#DD0000" stroke-width="4.8" stroke-miterlimit="10"/>
<path d="M307.717 137.15V188.85" stroke="#DD0000" stroke-width="4.8" stroke-miterlimit="10"/>
<path d="M322.717 188.85V240.55" stroke="#DD0000" stroke-width="4.8" stroke-miterlimit="10"/>
<path d="M307.717 188.85V240.55" stroke="#DD0000" stroke-width="4.8" stroke-miterlimit="10"/>
<path d="M240.218 323.05H188.518" stroke="#DD0000" stroke-width="4.8" stroke-miterlimit="10"/>
<path d="M240.218 308.05H188.518" stroke="#DD0000" stroke-width="4.8" stroke-miterlimit="10"/>
<path d="M188.516 323.05H136.816" stroke="#DD0000" stroke-width="4.8" stroke-miterlimit="10"/>
<path d="M188.516 308.05H136.816" stroke="#DD0000" stroke-width="4.8" stroke-miterlimit="10"/>
<path d="M136.817 323.05H85.1172" stroke="#DD0000" stroke-width="4.8" stroke-miterlimit="10"/>
<path d="M136.817 308.05H85.1172" stroke="#DD0000" stroke-width="4.8" stroke-miterlimit="10"/>
<path d="M2.61719 62.95V12.95C2.61719 7.42711 7.09434 2.94995 12.6172 2.94995H62.6172V17.95H47.6172V32.95H32.6172V47.95H17.6172V62.95H2.61719Z" stroke="#DD0000" stroke-width="4.8" stroke-miterlimit="10"/>
<path d="M2.61719 62.95V85.45" stroke="#DD0000" stroke-width="4.8" stroke-miterlimit="10"/>
<path d="M17.6172 62.95V85.45" stroke="#DD0000" stroke-width="4.8" stroke-miterlimit="10"/>
<path d="M62.6172 17.95H85.1172" stroke="#DD0000" stroke-width="4.8" stroke-miterlimit="10"/>
<path d="M62.6172 2.94995H85.1172" stroke="#DD0000" stroke-width="4.8" stroke-miterlimit="10"/>
<path d="M77.6172 2.94995V17.95" stroke="#DD0000" stroke-width="4.8" stroke-miterlimit="10"/>
<path d="M2.61719 77.95H17.6172" stroke="#DD0000" stroke-width="4.8" stroke-miterlimit="10"/>
<path d="M262.717 2.94995H312.717C318.24 2.94995 322.717 7.4271 322.717 12.95V62.95H307.717V47.95H292.717V32.95H277.717V17.95H262.717V2.94995Z" stroke="#DD0000" stroke-width="4.8" stroke-miterlimit="10"/>
<path d="M262.717 2.94995H240.217" stroke="#DD0000" stroke-width="4.8" stroke-miterlimit="10"/>
<path d="M262.717 17.95H240.217" stroke="#DD0000" stroke-width="4.8" stroke-miterlimit="10"/>
<path d="M307.717 62.95V85.45" stroke="#DD0000" stroke-width="4.8" stroke-miterlimit="10"/>
<path d="M322.717 62.95V85.45" stroke="#DD0000" stroke-width="4.8" stroke-miterlimit="10"/>
<path d="M322.717 77.95H307.717" stroke="#DD0000" stroke-width="4.8" stroke-miterlimit="10"/>
<path d="M247.717 2.94995V17.95" stroke="#DD0000" stroke-width="4.8" stroke-miterlimit="10"/>
<path d="M322.717 263.05V313.05C322.717 318.573 318.24 323.05 312.717 323.05H262.717V308.05H277.717V293.05H292.717V278.05H307.717V263.05H322.717Z" stroke="#DD0000" stroke-width="4.8" stroke-miterlimit="10"/>
<path d="M322.717 263.05V240.55" stroke="#DD0000" stroke-width="4.8" stroke-miterlimit="10"/>
<path d="M307.717 263.05V240.55" stroke="#DD0000" stroke-width="4.8" stroke-miterlimit="10"/>
<path d="M262.717 308.05H240.217" stroke="#DD0000" stroke-width="4.8" stroke-miterlimit="10"/>
<path d="M262.717 323.05H240.217" stroke="#DD0000" stroke-width="4.8" stroke-miterlimit="10"/>
<path d="M247.717 323.05V308.05" stroke="#DD0000" stroke-width="4.8" stroke-miterlimit="10"/>
<path d="M322.717 248.05H307.717" stroke="#DD0000" stroke-width="4.8" stroke-miterlimit="10"/>
<path d="M62.6172 323.05H12.6172C7.09434 323.05 2.61719 318.573 2.61719 313.05V263.05H17.6172V278.05H32.6172V293.05H47.6172V308.05H62.6172V323.05Z" stroke="#DD0000" stroke-width="4.8" stroke-miterlimit="10"/>
<path d="M62.6172 323.05H85.1172" stroke="#DD0000" stroke-width="4.8" stroke-miterlimit="10"/>
<path d="M62.6172 308.05H85.1172" stroke="#DD0000" stroke-width="4.8" stroke-miterlimit="10"/>
<path d="M17.6172 263.05V240.55" stroke="#DD0000" stroke-width="4.8" stroke-miterlimit="10"/>
<path d="M2.61719 263.05V240.55" stroke="#DD0000" stroke-width="4.8" stroke-miterlimit="10"/>
<path d="M2.61719 248.05H17.6172" stroke="#DD0000" stroke-width="4.8" stroke-miterlimit="10"/>
<path d="M77.6172 323.05V308.05" stroke="#DD0000" stroke-width="4.8" stroke-miterlimit="10"/>
</svg>
