<svg width="326" height="326" viewBox="0 0 326 326" fill="none" xmlns="http://www.w3.org/2000/svg">
<path d="M3 240.6V188.9" stroke="#DD0000" stroke-width="4.8" stroke-miterlimit="10"/>
<path d="M18 240.6V188.9" stroke="#DD0000" stroke-width="4.8" stroke-miterlimit="10"/>
<path d="M3 188.9V137.2" stroke="#DD0000" stroke-width="4.8" stroke-miterlimit="10"/>
<path d="M18 188.9V137.2" stroke="#DD0000" stroke-width="4.8" stroke-miterlimit="10"/>
<path d="M3 137.2V85.5" stroke="#DD0000" stroke-width="4.8" stroke-miterlimit="10"/>
<path d="M18 137.2V85.5" stroke="#DD0000" stroke-width="4.8" stroke-miterlimit="10"/>
<path d="M85.5 3H137.2" stroke="#DD0000" stroke-width="4.8" stroke-miterlimit="10"/>
<path d="M85.5 18H137.2" stroke="#DD0000" stroke-width="4.8" stroke-miterlimit="10"/>
<path d="M137.199 3H188.899" stroke="#DD0000" stroke-width="4.8" stroke-miterlimit="10"/>
<path d="M137.199 18H188.899" stroke="#DD0000" stroke-width="4.8" stroke-miterlimit="10"/>
<path d="M188.9 3H240.6" stroke="#DD0000" stroke-width="4.8" stroke-miterlimit="10"/>
<path d="M188.9 18H240.6" stroke="#DD0000" stroke-width="4.8" stroke-miterlimit="10"/>
<path d="M323.1 85.5V137.2" stroke="#DD0000" stroke-width="4.8" stroke-miterlimit="10"/>
<path d="M308.1 85.5V137.2" stroke="#DD0000" stroke-width="4.8" stroke-miterlimit="10"/>
<path d="M323.1 137.2V188.9" stroke="#DD0000" stroke-width="4.8" stroke-miterlimit="10"/>
<path d="M308.1 137.2V188.9" stroke="#DD0000" stroke-width="4.8" stroke-miterlimit="10"/>
<path d="M323.1 188.9V240.6" stroke="#DD0000" stroke-width="4.8" stroke-miterlimit="10"/>
<path d="M308.1 188.9V240.6" stroke="#DD0000" stroke-width="4.8" stroke-miterlimit="10"/>
<path d="M240.6 323.1H188.9" stroke="#DD0000" stroke-width="4.8" stroke-miterlimit="10"/>
<path d="M240.6 308.1H188.9" stroke="#DD0000" stroke-width="4.8" stroke-miterlimit="10"/>
<path d="M188.899 323.1H137.199" stroke="#DD0000" stroke-width="4.8" stroke-miterlimit="10"/>
<path d="M188.899 308.1H137.199" stroke="#DD0000" stroke-width="4.8" stroke-miterlimit="10"/>
<path d="M137.2 323.1H85.5" stroke="#DD0000" stroke-width="4.8" stroke-miterlimit="10"/>
<path d="M137.2 308.1H85.5" stroke="#DD0000" stroke-width="4.8" stroke-miterlimit="10"/>
<path d="M3 63V13C3 7.47715 7.47715 3 13 3H63V18H48V33H33V48H18V63H3Z" fill="#DD0000" stroke="#DD0000" stroke-width="4.8" stroke-miterlimit="10"/>
<path d="M3 63V85.5" stroke="#DD0000" stroke-width="4.8" stroke-miterlimit="10"/>
<path d="M18 63V85.5" stroke="#DD0000" stroke-width="4.8" stroke-miterlimit="10"/>
<path d="M63 18H85.5" stroke="#DD0000" stroke-width="4.8" stroke-miterlimit="10"/>
<path d="M63 3H85.5" stroke="#DD0000" stroke-width="4.8" stroke-miterlimit="10"/>
<path d="M78 3V18" stroke="#DD0000" stroke-width="4.8" stroke-miterlimit="10"/>
<path d="M3 78H18" stroke="#DD0000" stroke-width="4.8" stroke-miterlimit="10"/>
<path d="M263.1 3H313.1C318.622 3 323.1 7.47715 323.1 13V63H308.1V48H293.1V33H278.1V18H263.1V3Z" fill="#DD0000" stroke="#DD0000" stroke-width="4.8" stroke-miterlimit="10"/>
<path d="M263.1 3H240.6" stroke="#DD0000" stroke-width="4.8" stroke-miterlimit="10"/>
<path d="M263.1 18H240.6" stroke="#DD0000" stroke-width="4.8" stroke-miterlimit="10"/>
<path d="M308.1 63V85.5" stroke="#DD0000" stroke-width="4.8" stroke-miterlimit="10"/>
<path d="M323.1 63V85.5" stroke="#DD0000" stroke-width="4.8" stroke-miterlimit="10"/>
<path d="M323.1 78H308.1" stroke="#DD0000" stroke-width="4.8" stroke-miterlimit="10"/>
<path d="M248.1 3V18" stroke="#DD0000" stroke-width="4.8" stroke-miterlimit="10"/>
<path d="M323.1 263.1V313.1C323.1 318.623 318.622 323.1 313.1 323.1H263.1V308.1H278.1V293.1H293.1V278.1H308.1V263.1H323.1Z" fill="#DD0000" stroke="#DD0000" stroke-width="4.8" stroke-miterlimit="10"/>
<path d="M323.1 263.1V240.6" stroke="#DD0000" stroke-width="4.8" stroke-miterlimit="10"/>
<path d="M308.1 263.1V240.6" stroke="#DD0000" stroke-width="4.8" stroke-miterlimit="10"/>
<path d="M263.1 308.1H240.6" stroke="#DD0000" stroke-width="4.8" stroke-miterlimit="10"/>
<path d="M263.1 323.1H240.6" stroke="#DD0000" stroke-width="4.8" stroke-miterlimit="10"/>
<path d="M248.1 323.1V308.1" stroke="#DD0000" stroke-width="4.8" stroke-miterlimit="10"/>
<path d="M323.1 248.1H308.1" stroke="#DD0000" stroke-width="4.8" stroke-miterlimit="10"/>
<path d="M63 323.1H13C7.47715 323.1 3 318.623 3 313.1V263.1H18V278.1H33V293.1H48V308.1H63V323.1Z" fill="#DD0000" stroke="#DD0000" stroke-width="4.8" stroke-miterlimit="10"/>
<path d="M63 323.1H85.5" stroke="#DD0000" stroke-width="4.8" stroke-miterlimit="10"/>
<path d="M63 308.1H85.5" stroke="#DD0000" stroke-width="4.8" stroke-miterlimit="10"/>
<path d="M18 263.1V240.6" stroke="#DD0000" stroke-width="4.8" stroke-miterlimit="10"/>
<path d="M3 263.1V240.6" stroke="#DD0000" stroke-width="4.8" stroke-miterlimit="10"/>
<path d="M3 248.1H18" stroke="#DD0000" stroke-width="4.8" stroke-miterlimit="10"/>
<path d="M78 323.1V308.1" stroke="#DD0000" stroke-width="4.8" stroke-miterlimit="10"/>
<rect x="4" y="78" width="13" height="170" fill="#DD0000"/>
<rect x="308" y="78" width="13" height="170" fill="#DD0000"/>
<rect x="78" y="18" width="13" height="170" transform="rotate(-90 78 18)" fill="#DD0000"/>
<rect x="78" y="322" width="13" height="170" transform="rotate(-90 78 322)" fill="#DD0000"/>
</svg>
